<?xml version="1.0" encoding="UTF-8"?>
<mxfile host="app.diagrams.net" agent="Mozilla/5.0 (Windows NT 10.0; Win64; x64) AppleWebKit/537.36 (KHTML, like Gecko) Chrome/140.0.0.0 Safari/537.36" version="28.2.1">
  <diagram name="Page-1" id="XRnFHhCqIN9ukWK4FecN">
    <mxGraphModel dx="4797" dy="2733" grid="1" gridSize="10" guides="1" tooltips="1" connect="1" arrows="1" fold="1" page="1" pageScale="1" pageWidth="827" pageHeight="1169" math="0" shadow="0">
      <root>
        <mxCell id="0" />
        <mxCell id="1" parent="0" />
        <mxCell id="V6R2gm-3gDxpUbskBVL9-5" value="Người đọc" style="ellipse;whiteSpace=wrap;html=1;fillColor=#d9edf7;" parent="1" vertex="1">
          <mxGeometry x="-180" y="-1000" width="100" height="60" as="geometry" />
        </mxCell>
        <mxCell id="V6R2gm-3gDxpUbskBVL9-6" value="Tác giả" style="ellipse;whiteSpace=wrap;html=1;fillColor=#d9edf7;" parent="1" vertex="1">
          <mxGeometry x="-180" y="-920" width="100" height="60" as="geometry" />
        </mxCell>
        <mxCell id="V6R2gm-3gDxpUbskBVL9-7" value="Quản trị viên" style="ellipse;whiteSpace=wrap;html=1;fillColor=#d9edf7;" parent="1" vertex="1">
          <mxGeometry x="-180" y="-840" width="120" height="60" as="geometry" />
        </mxCell>
        <mxCell id="V6R2gm-3gDxpUbskBVL9-8" value="Web App (React/Next.js)" style="rounded=1;whiteSpace=wrap;html=1;fillColor=#dff0d8;" parent="1" vertex="1">
          <mxGeometry x="20" y="-920" width="160" height="80" as="geometry" />
        </mxCell>
        <mxCell id="V6R2gm-3gDxpUbskBVL9-9" value="Backend API (Node.js / Firebase Functions)" style="rounded=1;whiteSpace=wrap;html=1;fillColor=#fcf8e3;" parent="1" vertex="1">
          <mxGeometry x="240" y="-920" width="220" height="80" as="geometry" />
        </mxCell>
        <mxCell id="V6R2gm-3gDxpUbskBVL9-10" value="Auth Service" style="rounded=1;whiteSpace=wrap;html=1;" parent="1" vertex="1">
          <mxGeometry x="520" y="-1020" width="120" height="50" as="geometry" />
        </mxCell>
        <mxCell id="V6R2gm-3gDxpUbskBVL9-11" value="Story Service" style="rounded=1;whiteSpace=wrap;html=1;" parent="1" vertex="1">
          <mxGeometry x="520" y="-960" width="120" height="50" as="geometry" />
        </mxCell>
        <mxCell id="V6R2gm-3gDxpUbskBVL9-12" value="Search Service" style="rounded=1;whiteSpace=wrap;html=1;" parent="1" vertex="1">
          <mxGeometry x="520" y="-900" width="120" height="50" as="geometry" />
        </mxCell>
        <mxCell id="V6R2gm-3gDxpUbskBVL9-13" value="Social Service" style="rounded=1;whiteSpace=wrap;html=1;" parent="1" vertex="1">
          <mxGeometry x="520" y="-840" width="120" height="50" as="geometry" />
        </mxCell>
        <mxCell id="V6R2gm-3gDxpUbskBVL9-14" value="Admin Service" style="rounded=1;whiteSpace=wrap;html=1;" parent="1" vertex="1">
          <mxGeometry x="520" y="-780" width="120" height="50" as="geometry" />
        </mxCell>
        <mxCell id="V6R2gm-3gDxpUbskBVL9-15" value="AI Service" style="rounded=1;whiteSpace=wrap;html=1;" parent="1" vertex="1">
          <mxGeometry x="520" y="-720" width="120" height="50" as="geometry" />
        </mxCell>
        <mxCell id="V6R2gm-3gDxpUbskBVL9-16" value="Firebase Auth" style="ellipse;whiteSpace=wrap;html=1;fillColor=#f2dede;" parent="1" vertex="1">
          <mxGeometry x="720" y="-1020" width="120" height="50" as="geometry" />
        </mxCell>
        <mxCell id="V6R2gm-3gDxpUbskBVL9-17" value="Firestore Database" style="ellipse;whiteSpace=wrap;html=1;fillColor=#f5f5f5;" parent="1" vertex="1">
          <mxGeometry x="720" y="-940" width="150" height="60" as="geometry" />
        </mxCell>
        <mxCell id="V6R2gm-3gDxpUbskBVL9-18" value="Cloud Storage" style="ellipse;whiteSpace=wrap;html=1;fillColor=#f5f5f5;" parent="1" vertex="1">
          <mxGeometry x="720" y="-860" width="150" height="60" as="geometry" />
        </mxCell>
        <mxCell id="V6R2gm-3gDxpUbskBVL9-19" value="AI API (OpenAI/Gemini)" style="ellipse;whiteSpace=wrap;html=1;fillColor=#e8e8ff;" parent="1" vertex="1">
          <mxGeometry x="720" y="-780" width="160" height="60" as="geometry" />
        </mxCell>
        <mxCell id="V6R2gm-3gDxpUbskBVL9-20" parent="1" source="V6R2gm-3gDxpUbskBVL9-5" target="V6R2gm-3gDxpUbskBVL9-8" edge="1">
          <mxGeometry relative="1" as="geometry" />
        </mxCell>
        <mxCell id="V6R2gm-3gDxpUbskBVL9-21" parent="1" source="V6R2gm-3gDxpUbskBVL9-6" target="V6R2gm-3gDxpUbskBVL9-8" edge="1">
          <mxGeometry relative="1" as="geometry" />
        </mxCell>
        <mxCell id="V6R2gm-3gDxpUbskBVL9-22" parent="1" source="V6R2gm-3gDxpUbskBVL9-7" target="V6R2gm-3gDxpUbskBVL9-8" edge="1">
          <mxGeometry relative="1" as="geometry" />
        </mxCell>
        <mxCell id="V6R2gm-3gDxpUbskBVL9-23" parent="1" source="V6R2gm-3gDxpUbskBVL9-8" target="V6R2gm-3gDxpUbskBVL9-9" edge="1">
          <mxGeometry relative="1" as="geometry" />
        </mxCell>
        <mxCell id="V6R2gm-3gDxpUbskBVL9-24" parent="1" source="V6R2gm-3gDxpUbskBVL9-9" target="V6R2gm-3gDxpUbskBVL9-10" edge="1">
          <mxGeometry relative="1" as="geometry" />
        </mxCell>
        <mxCell id="V6R2gm-3gDxpUbskBVL9-25" parent="1" source="V6R2gm-3gDxpUbskBVL9-9" target="V6R2gm-3gDxpUbskBVL9-11" edge="1">
          <mxGeometry relative="1" as="geometry" />
        </mxCell>
        <mxCell id="V6R2gm-3gDxpUbskBVL9-26" parent="1" source="V6R2gm-3gDxpUbskBVL9-9" target="V6R2gm-3gDxpUbskBVL9-12" edge="1">
          <mxGeometry relative="1" as="geometry" />
        </mxCell>
        <mxCell id="V6R2gm-3gDxpUbskBVL9-27" parent="1" source="V6R2gm-3gDxpUbskBVL9-9" target="V6R2gm-3gDxpUbskBVL9-13" edge="1">
          <mxGeometry relative="1" as="geometry" />
        </mxCell>
        <mxCell id="V6R2gm-3gDxpUbskBVL9-28" parent="1" source="V6R2gm-3gDxpUbskBVL9-9" target="V6R2gm-3gDxpUbskBVL9-14" edge="1">
          <mxGeometry relative="1" as="geometry" />
        </mxCell>
        <mxCell id="V6R2gm-3gDxpUbskBVL9-29" parent="1" source="V6R2gm-3gDxpUbskBVL9-9" target="V6R2gm-3gDxpUbskBVL9-15" edge="1">
          <mxGeometry relative="1" as="geometry" />
        </mxCell>
        <mxCell id="V6R2gm-3gDxpUbskBVL9-30" parent="1" source="V6R2gm-3gDxpUbskBVL9-10" target="V6R2gm-3gDxpUbskBVL9-16" edge="1">
          <mxGeometry relative="1" as="geometry" />
        </mxCell>
        <mxCell id="V6R2gm-3gDxpUbskBVL9-31" parent="1" source="V6R2gm-3gDxpUbskBVL9-11" target="V6R2gm-3gDxpUbskBVL9-17" edge="1">
          <mxGeometry relative="1" as="geometry" />
        </mxCell>
        <mxCell id="V6R2gm-3gDxpUbskBVL9-32" parent="1" source="V6R2gm-3gDxpUbskBVL9-11" target="V6R2gm-3gDxpUbskBVL9-18" edge="1">
          <mxGeometry relative="1" as="geometry" />
        </mxCell>
        <mxCell id="V6R2gm-3gDxpUbskBVL9-33" parent="1" source="V6R2gm-3gDxpUbskBVL9-12" target="V6R2gm-3gDxpUbskBVL9-17" edge="1">
          <mxGeometry relative="1" as="geometry" />
        </mxCell>
        <mxCell id="V6R2gm-3gDxpUbskBVL9-34" parent="1" source="V6R2gm-3gDxpUbskBVL9-13" target="V6R2gm-3gDxpUbskBVL9-17" edge="1">
          <mxGeometry relative="1" as="geometry" />
        </mxCell>
        <mxCell id="V6R2gm-3gDxpUbskBVL9-35" parent="1" source="V6R2gm-3gDxpUbskBVL9-14" target="V6R2gm-3gDxpUbskBVL9-17" edge="1">
          <mxGeometry relative="1" as="geometry" />
        </mxCell>
        <mxCell id="V6R2gm-3gDxpUbskBVL9-36" parent="1" source="V6R2gm-3gDxpUbskBVL9-15" target="V6R2gm-3gDxpUbskBVL9-19" edge="1">
          <mxGeometry relative="1" as="geometry" />
        </mxCell>
        <mxCell id="V6R2gm-3gDxpUbskBVL9-56" parent="1" source="V6R2gm-3gDxpUbskBVL9-38" target="V6R2gm-3gDxpUbskBVL9-42" edge="1">
          <mxGeometry relative="1" as="geometry" />
        </mxCell>
        <mxCell id="V6R2gm-3gDxpUbskBVL9-57" parent="1" source="V6R2gm-3gDxpUbskBVL9-39" target="V6R2gm-3gDxpUbskBVL9-42" edge="1">
          <mxGeometry relative="1" as="geometry" />
        </mxCell>
        <mxCell id="V6R2gm-3gDxpUbskBVL9-58" parent="1" source="V6R2gm-3gDxpUbskBVL9-40" target="V6R2gm-3gDxpUbskBVL9-42" edge="1">
          <mxGeometry relative="1" as="geometry" />
        </mxCell>
        <mxCell id="V6R2gm-3gDxpUbskBVL9-59" parent="1" source="V6R2gm-3gDxpUbskBVL9-42" target="V6R2gm-3gDxpUbskBVL9-44" edge="1">
          <mxGeometry relative="1" as="geometry" />
        </mxCell>
        <mxCell id="V6R2gm-3gDxpUbskBVL9-60" parent="1" source="V6R2gm-3gDxpUbskBVL9-44" target="V6R2gm-3gDxpUbskBVL9-45" edge="1">
          <mxGeometry relative="1" as="geometry" />
        </mxCell>
        <mxCell id="V6R2gm-3gDxpUbskBVL9-61" parent="1" source="V6R2gm-3gDxpUbskBVL9-44" target="V6R2gm-3gDxpUbskBVL9-46" edge="1">
          <mxGeometry relative="1" as="geometry" />
        </mxCell>
        <mxCell id="V6R2gm-3gDxpUbskBVL9-62" parent="1" source="V6R2gm-3gDxpUbskBVL9-44" target="V6R2gm-3gDxpUbskBVL9-47" edge="1">
          <mxGeometry relative="1" as="geometry" />
        </mxCell>
        <mxCell id="V6R2gm-3gDxpUbskBVL9-63" parent="1" source="V6R2gm-3gDxpUbskBVL9-44" target="V6R2gm-3gDxpUbskBVL9-48" edge="1">
          <mxGeometry relative="1" as="geometry" />
        </mxCell>
        <mxCell id="V6R2gm-3gDxpUbskBVL9-64" parent="1" source="V6R2gm-3gDxpUbskBVL9-44" target="V6R2gm-3gDxpUbskBVL9-49" edge="1">
          <mxGeometry relative="1" as="geometry" />
        </mxCell>
        <mxCell id="V6R2gm-3gDxpUbskBVL9-65" parent="1" source="V6R2gm-3gDxpUbskBVL9-44" target="V6R2gm-3gDxpUbskBVL9-50" edge="1">
          <mxGeometry relative="1" as="geometry" />
        </mxCell>
        <mxCell id="V6R2gm-3gDxpUbskBVL9-66" parent="1" source="V6R2gm-3gDxpUbskBVL9-45" target="V6R2gm-3gDxpUbskBVL9-52" edge="1">
          <mxGeometry relative="1" as="geometry" />
        </mxCell>
        <mxCell id="V6R2gm-3gDxpUbskBVL9-67" parent="1" source="V6R2gm-3gDxpUbskBVL9-46" target="V6R2gm-3gDxpUbskBVL9-53" edge="1">
          <mxGeometry relative="1" as="geometry" />
        </mxCell>
        <mxCell id="V6R2gm-3gDxpUbskBVL9-68" parent="1" source="V6R2gm-3gDxpUbskBVL9-47" target="V6R2gm-3gDxpUbskBVL9-53" edge="1">
          <mxGeometry relative="1" as="geometry" />
        </mxCell>
        <mxCell id="V6R2gm-3gDxpUbskBVL9-69" parent="1" source="V6R2gm-3gDxpUbskBVL9-48" target="V6R2gm-3gDxpUbskBVL9-53" edge="1">
          <mxGeometry relative="1" as="geometry" />
        </mxCell>
        <mxCell id="V6R2gm-3gDxpUbskBVL9-70" parent="1" source="V6R2gm-3gDxpUbskBVL9-49" target="V6R2gm-3gDxpUbskBVL9-53" edge="1">
          <mxGeometry relative="1" as="geometry" />
        </mxCell>
        <mxCell id="V6R2gm-3gDxpUbskBVL9-71" parent="1" source="V6R2gm-3gDxpUbskBVL9-49" target="V6R2gm-3gDxpUbskBVL9-54" edge="1">
          <mxGeometry relative="1" as="geometry" />
        </mxCell>
        <mxCell id="V6R2gm-3gDxpUbskBVL9-72" parent="1" source="V6R2gm-3gDxpUbskBVL9-50" target="V6R2gm-3gDxpUbskBVL9-55" edge="1">
          <mxGeometry relative="1" as="geometry" />
        </mxCell>
        <mxCell id="V6R2gm-3gDxpUbskBVL9-39" value="Author" style="shape=rectangle;whiteSpace=wrap;html=1;rotation=0;" parent="1" vertex="1">
          <mxGeometry x="-2199.5" y="210" width="120" height="60" as="geometry" />
        </mxCell>
        <mxCell id="V6R2gm-3gDxpUbskBVL9-40" value="Reader" style="shape=rectangle;whiteSpace=wrap;html=1;rotation=0;" parent="1" vertex="1">
          <mxGeometry x="-2200" y="90" width="120" height="60" as="geometry" />
        </mxCell>
        <mxCell id="V6R2gm-3gDxpUbskBVL9-38" value="Admin" style="shape=rectangle;whiteSpace=wrap;html=1;rotation=0;" parent="1" vertex="1">
          <mxGeometry x="-2199.5" y="-30" width="120" height="70" as="geometry" />
        </mxCell>
        <mxCell id="V6R2gm-3gDxpUbskBVL9-73" value="&amp;nbsp;" style="rounded=0;whiteSpace=wrap;html=1;gradientColor=none;glass=0;shadow=0;fillColor=none;dashed=1;dashPattern=8 8;" parent="1" vertex="1">
          <mxGeometry x="-2290" y="-100" width="300" height="440" as="geometry" />
        </mxCell>
        <mxCell id="V6R2gm-3gDxpUbskBVL9-74" value="Users" style="text;strokeColor=none;fillColor=none;align=left;verticalAlign=middle;spacingLeft=4;spacingRight=4;overflow=hidden;points=[[0,0.5],[1,0.5]];portConstraint=eastwest;rotatable=0;whiteSpace=wrap;html=1;fontSize=16;" parent="1" vertex="1">
          <mxGeometry x="-2174.5" y="-100" width="70" height="30" as="geometry" />
        </mxCell>
        <mxCell id="V6R2gm-3gDxpUbskBVL9-42" value="Web App (React/Next.js)" style="shape=rectangle;whiteSpace=wrap;html=1;" parent="1" vertex="1">
          <mxGeometry x="-1860" y="50" width="160" height="120" as="geometry" />
        </mxCell>
        <mxCell id="V6R2gm-3gDxpUbskBVL9-75" value="" style="rounded=0;whiteSpace=wrap;html=1;gradientColor=none;glass=0;shadow=0;fillColor=none;dashed=1;dashPattern=8 8;" parent="1" vertex="1">
          <mxGeometry x="-1930" y="-100" width="300" height="440" as="geometry" />
        </mxCell>
        <mxCell id="V6R2gm-3gDxpUbskBVL9-76" value="Frontend" style="text;strokeColor=none;fillColor=none;align=left;verticalAlign=middle;spacingLeft=4;spacingRight=4;overflow=hidden;points=[[0,0.5],[1,0.5]];portConstraint=eastwest;rotatable=0;whiteSpace=wrap;html=1;fontSize=16;" parent="1" vertex="1">
          <mxGeometry x="-1814.5" y="-100" width="70" height="30" as="geometry" />
        </mxCell>
        <mxCell id="V6R2gm-3gDxpUbskBVL9-44" value="Backend API (Node.js / Firebase Functions)" style="shape=rectangle;whiteSpace=wrap;html=1;" parent="1" vertex="1">
          <mxGeometry x="-1500" y="75" width="200" height="70" as="geometry" />
        </mxCell>
        <mxCell id="V6R2gm-3gDxpUbskBVL9-45" value="Auth Service" style="shape=rectangle;whiteSpace=wrap;html=1;" parent="1" vertex="1">
          <mxGeometry x="-1200" y="-145" width="160" height="60" as="geometry" />
        </mxCell>
        <mxCell id="V6R2gm-3gDxpUbskBVL9-46" value="Admin Service" style="shape=rectangle;whiteSpace=wrap;html=1;" parent="1" vertex="1">
          <mxGeometry x="-1200" y="145" width="160" height="45" as="geometry" />
        </mxCell>
        <mxCell id="V6R2gm-3gDxpUbskBVL9-47" value="Social Service" style="shape=rectangle;whiteSpace=wrap;html=1;" parent="1" vertex="1">
          <mxGeometry x="-1200" y="-10" width="160" height="50" as="geometry" />
        </mxCell>
        <mxCell id="V6R2gm-3gDxpUbskBVL9-48" value="Search Service" style="shape=rectangle;whiteSpace=wrap;html=1;" parent="1" vertex="1">
          <mxGeometry x="-1200" y="70" width="160" height="50" as="geometry" />
        </mxCell>
        <mxCell id="V6R2gm-3gDxpUbskBVL9-49" value="Story Service" style="shape=rectangle;whiteSpace=wrap;html=1;" parent="1" vertex="1">
          <mxGeometry x="-1200" y="235" width="160" height="60" as="geometry" />
        </mxCell>
        <mxCell id="V6R2gm-3gDxpUbskBVL9-50" value="AI Service" style="shape=rectangle;whiteSpace=wrap;html=1;" parent="1" vertex="1">
          <mxGeometry x="-1200" y="375" width="160" height="60" as="geometry" />
        </mxCell>
        <mxCell id="V6R2gm-3gDxpUbskBVL9-52" value="Firebase Auth" style="shape=rectangle;whiteSpace=wrap;html=1;" parent="1" vertex="1">
          <mxGeometry x="-760" y="-140" width="160" height="50" as="geometry" />
        </mxCell>
        <mxCell id="V6R2gm-3gDxpUbskBVL9-53" value="Firestore Database" style="shape=cylinder;whiteSpace=wrap;html=1;" parent="1" vertex="1">
          <mxGeometry x="-760" y="53.75" width="160" height="112.5" as="geometry" />
        </mxCell>
        <mxCell id="V6R2gm-3gDxpUbskBVL9-54" value="Cloud Storage" style="shape=cylinder;whiteSpace=wrap;html=1;" parent="1" vertex="1">
          <mxGeometry x="-760" y="220" width="160" height="90" as="geometry" />
        </mxCell>
        <mxCell id="V6R2gm-3gDxpUbskBVL9-55" value="AI API (OpenAI/Gemini)" style="shape=rectangle;whiteSpace=wrap;html=1;" parent="1" vertex="1">
          <mxGeometry x="-760" y="370" width="160" height="70" as="geometry" />
        </mxCell>
        <mxCell id="V6R2gm-3gDxpUbskBVL9-77" value="" style="rounded=0;whiteSpace=wrap;html=1;gradientColor=none;glass=0;shadow=0;fillColor=none;dashed=1;dashPattern=8 8;" parent="1" vertex="1">
          <mxGeometry x="-1565" y="-220" width="690" height="680" as="geometry" />
        </mxCell>
        <mxCell id="V6R2gm-3gDxpUbskBVL9-78" value="Frontend" style="text;strokeColor=none;fillColor=none;align=left;verticalAlign=middle;spacingLeft=4;spacingRight=4;overflow=hidden;points=[[0,0.5],[1,0.5]];portConstraint=eastwest;rotatable=0;whiteSpace=wrap;html=1;fontSize=16;" parent="1" vertex="1">
          <mxGeometry x="-1260" y="-210" width="80" height="30" as="geometry" />
        </mxCell>
        <mxCell id="V6R2gm-3gDxpUbskBVL9-80" value="" style="rounded=0;whiteSpace=wrap;html=1;gradientColor=none;glass=0;shadow=0;fillColor=none;dashed=1;dashPattern=8 8;" parent="1" vertex="1">
          <mxGeometry x="-827" y="-230" width="307" height="690" as="geometry" />
        </mxCell>
        <mxCell id="V6R2gm-3gDxpUbskBVL9-81" value="&lt;span style=&quot;font-weight: 700; text-align: center; text-wrap-mode: nowrap;&quot;&gt;&lt;font&gt;Services&lt;/font&gt;&lt;/span&gt;" style="text;strokeColor=none;fillColor=none;align=left;verticalAlign=middle;spacingLeft=4;spacingRight=4;overflow=hidden;points=[[0,0.5],[1,0.5]];portConstraint=eastwest;rotatable=0;whiteSpace=wrap;html=1;fontSize=16;" parent="1" vertex="1">
          <mxGeometry x="-710" y="-220" width="78" height="30" as="geometry" />
        </mxCell>
      </root>
    </mxGraphModel>
  </diagram>
</mxfile>
